<?xml version="1.0" encoding="utf-8"?>
<!-- Generator: Adobe Illustrator 21.1.0, SVG Export Plug-In . SVG Version: 6.00 Build 0)  -->
<svg version="1.1" id="Layer_1" xmlns="http://www.w3.org/2000/svg" xmlns:xlink="http://www.w3.org/1999/xlink" x="0px" y="0px"
	 viewBox="0 0 51.5 97.7" style="enable-background:new 0 0 51.5 97.7;" xml:space="preserve">
<style type="text/css">
	.st0{fill:#FFFFFF;}
	.st1{font-family:'JAPANHollow';}
	.st2{font-size:25.1595px;}
</style>
<g>
	<g>
		<g>
			<path class="st0" d="M9.3,75.5h10.2c0.5,0,0.8,0.2,1.2,0.5c0.3,0.3,0.5,0.7,0.5,1.2s-0.2,0.8-0.5,1.2c-0.3,0.3-0.7,0.5-1.2,0.5
				h-12v1.8c0,0.5,0.2,0.9,0.5,1.2c0.3,0.3,0.8,0.5,1.2,0.5h6.8c0.5,0,0.9-0.2,1.2-0.5c0.3-0.3,0.5-0.8,0.5-1.2
				c0-0.5,0.2-0.8,0.5-1.2c0.3-0.3,0.7-0.5,1.2-0.5c0.5,0,0.8,0.2,1.2,0.5c0.3,0.3,0.5,0.7,0.5,1.2c0,0.9-0.2,1.8-0.7,2.5
				c-0.5,0.8-1.1,1.4-1.8,1.8c-0.8,0.5-1.6,0.7-2.5,0.7H9.3c-0.9,0-1.8-0.2-2.5-0.7c-0.8-0.5-1.4-1.1-1.8-1.8
				c-0.5-0.8-0.7-1.6-0.7-2.5v-3.4c0-0.5,0.2-0.9,0.5-1.2c-0.3-0.6-0.5-1.4-0.5-2.2v-3.4c0-0.5,0.2-0.8,0.5-1.2
				c0.3-0.3,0.7-0.5,1.2-0.5h13.7c0.5,0,0.8,0.2,1.2,0.5c0.3,0.3,0.5,0.7,0.5,1.2v3.4c0,0.5-0.2,0.8-0.5,1.2
				c-0.3,0.3-0.7,0.5-1.2,0.5c-0.5,0-0.8-0.2-1.2-0.5c-0.3-0.3-0.5-0.7-0.5-1.2v-1.8H7.6v1.8c0,0.5,0.2,0.9,0.5,1.2
				C8.4,75.3,8.8,75.5,9.3,75.5z M9.3,75.8c-0.6,0-1.1-0.2-1.5-0.6c-0.4-0.4-0.6-0.9-0.6-1.5v-2.1h11.1v2.1c0,0.4,0.1,0.7,0.4,0.9
				c0.3,0.2,0.6,0.4,0.9,0.4c0.4,0,0.7-0.1,0.9-0.4c0.3-0.3,0.4-0.6,0.4-0.9v-3.4c0-0.4-0.1-0.7-0.4-0.9c-0.3-0.2-0.6-0.4-0.9-0.4
				H5.9c-0.4,0-0.7,0.1-0.9,0.4c-0.3,0.3-0.4,0.6-0.4,0.9v3.4c0,0.8,0.2,1.6,0.6,2.3c-0.4,0.3-0.6,0.7-0.6,1.1v3.4
				c0,0.9,0.2,1.6,0.6,2.4s1,1.3,1.7,1.7c0.7,0.4,1.5,0.6,2.4,0.6h6.8c0.9,0,1.6-0.2,2.4-0.6c0.7-0.4,1.3-1,1.7-1.7
				c0.4-0.7,0.6-1.5,0.6-2.4c0-0.4-0.1-0.7-0.4-0.9c-0.3-0.2-0.6-0.4-0.9-0.4c-0.4,0-0.7,0.1-0.9,0.4c-0.3,0.3-0.4,0.6-0.4,0.9
				c0,0.6-0.2,1.1-0.6,1.5c-0.4,0.4-0.9,0.6-1.5,0.6H9.3c-0.6,0-1.1-0.2-1.5-0.6c-0.4-0.4-0.6-0.9-0.6-1.5v-2.1h12.4
				c0.4,0,0.7-0.1,0.9-0.4c0.3-0.3,0.4-0.6,0.4-0.9s-0.1-0.7-0.4-0.9c-0.3-0.2-0.6-0.4-0.9-0.4H9.3z"/>
		</g>
		<g>
			<path class="st0" d="M41.9,57.5v-1.8H31.5v8.6c0,0.5,0.2,0.9,0.5,1.2c0.3,0.3,0.8,0.5,1.2,0.5h6.8c0.5,0,0.9-0.2,1.2-0.5
				c0.3-0.3,0.5-0.8,0.5-1.2v-1.8h-5.2c-0.5,0-0.8-0.2-1.2-0.5c-0.3-0.3-0.5-0.7-0.5-1.2s0.2-0.8,0.5-1.2c0.3-0.3,0.7-0.5,1.2-0.5
				h6.8c0.5,0,0.8,0.2,1.2,0.5s0.5,0.7,0.5,1.2v3.4c0,0.9-0.2,1.8-0.7,2.5s-1.1,1.4-1.8,1.8c-0.8,0.5-1.6,0.7-2.5,0.7h-6.8
				c-0.9,0-1.8-0.2-2.5-0.7c-0.8-0.5-1.4-1.1-1.8-1.8s-0.7-1.6-0.7-2.5V54.1c0-0.5,0.2-0.8,0.5-1.2c0.3-0.3,0.7-0.5,1.2-0.5h13.7
				c0.5,0,0.8,0.2,1.2,0.5c0.3,0.3,0.5,0.7,0.5,1.2v3.4c0,0.5-0.2,0.8-0.5,1.2c-0.3,0.3-0.7,0.5-1.2,0.5c-0.5,0-0.8-0.2-1.2-0.5
				C42,58.4,41.9,58,41.9,57.5z M42.3,57.5c0,0.4,0.1,0.7,0.4,0.9c0.3,0.2,0.6,0.4,0.9,0.4c0.4,0,0.7-0.1,0.9-0.4
				c0.3-0.3,0.4-0.6,0.4-0.9v-3.4c0-0.4-0.1-0.7-0.4-0.9c-0.3-0.2-0.6-0.4-0.9-0.4H29.9c-0.4,0-0.7,0.1-0.9,0.4
				c-0.3,0.3-0.4,0.6-0.4,0.9v10.2c0,0.9,0.2,1.6,0.6,2.4c0.4,0.7,1,1.3,1.7,1.7c0.7,0.4,1.5,0.6,2.4,0.6h6.8c0.9,0,1.6-0.2,2.4-0.6
				c0.7-0.4,1.3-1,1.7-1.7c0.4-0.7,0.6-1.5,0.6-2.4v-3.4c0-0.4-0.1-0.7-0.4-0.9c-0.3-0.2-0.6-0.4-0.9-0.4h-6.8
				c-0.4,0-0.7,0.1-0.9,0.4c-0.3,0.3-0.4,0.6-0.4,0.9s0.1,0.7,0.4,0.9c0.3,0.2,0.6,0.4,0.9,0.4h5.6v2.1c0,0.6-0.2,1.1-0.6,1.5
				c-0.4,0.4-0.9,0.6-1.5,0.6h-6.8c-0.6,0-1.1-0.2-1.5-0.6c-0.4-0.4-0.6-0.9-0.6-1.5v-9h11.1V57.5z"/>
		</g>
		<g>
			<path class="st0" d="M5.9,6.9h13.7c0.5,0,0.8,0.2,1.2,0.5c0.3,0.3,0.5,0.7,0.5,1.2V12c0,0.8-0.2,1.6-0.5,2.2
				c0.3,0.3,0.5,0.7,0.5,1.2v3.4c0,0.9-0.2,1.8-0.7,2.5c-0.5,0.8-1.1,1.4-1.8,1.8c-0.8,0.5-1.6,0.7-2.5,0.7H9.3
				c-0.9,0-1.8-0.2-2.5-0.7c-0.8-0.5-1.4-1.1-1.8-1.8c-0.5-0.8-0.7-1.6-0.7-2.5V8.6c0-0.5,0.2-0.8,0.5-1.2C5.1,7.1,5.5,6.9,5.9,6.9z
				 M5.9,7.3C5.6,7.3,5.3,7.4,5,7.7C4.8,7.9,4.6,8.2,4.6,8.6v10.2c0,0.9,0.2,1.6,0.6,2.4c0.4,0.7,1,1.3,1.7,1.7
				c0.7,0.4,1.5,0.6,2.4,0.6h6.8c0.9,0,1.6-0.2,2.4-0.6c0.7-0.4,1.3-1,1.7-1.7c0.4-0.7,0.6-1.5,0.6-2.4v-3.4c0-0.4-0.2-0.8-0.6-1.1
				c0.4-0.7,0.6-1.5,0.6-2.3V8.6c0-0.4-0.1-0.7-0.4-0.9c-0.3-0.2-0.6-0.4-0.9-0.4H5.9z M18.3,9.9V12c0,0.6-0.2,1.1-0.6,1.5
				c-0.4,0.4-0.9,0.6-1.5,0.6h-9V9.9H18.3z M18.3,16.7v2.1c0,0.6-0.2,1.1-0.6,1.5c-0.4,0.4-0.9,0.6-1.5,0.6H9.3
				c-0.6,0-1.1-0.2-1.5-0.6c-0.4-0.4-0.6-0.9-0.6-1.5v-2.1H18.3z M17.9,10.2H7.6v3.5h8.6c0.5,0,0.9-0.2,1.2-0.5
				c0.3-0.3,0.5-0.8,0.5-1.2V10.2z M17.9,17.1H7.6v1.8c0,0.5,0.2,0.9,0.5,1.2c0.3,0.3,0.8,0.5,1.2,0.5h6.8c0.5,0,0.9-0.2,1.2-0.5
				c0.3-0.3,0.5-0.8,0.5-1.2V17.1z"/>
		</g>
		<g>
			<path class="st0" d="M32,22.8h13.7c0.5,0,0.8,0.2,1.2,0.5c0.3,0.3,0.5,0.7,0.5,1.2v6.8c0,1.6-0.4,3-1.1,4.3
				c-0.8,1.3-1.8,2.3-3.1,3.1c-1.3,0.8-2.7,1.1-4.3,1.1H32c-0.5,0-0.8-0.2-1.2-0.5c-0.3-0.3-0.5-0.7-0.5-1.2V24.5
				c0-0.5,0.2-0.8,0.5-1.2C31.1,23,31.5,22.8,32,22.8z M32,23.2c-0.4,0-0.7,0.1-0.9,0.4c-0.3,0.3-0.4,0.6-0.4,0.9v13.7
				c0,0.4,0.1,0.7,0.4,0.9c0.3,0.2,0.6,0.4,0.9,0.4h6.8c1.5,0,2.8-0.4,4.1-1.1c1.2-0.7,2.2-1.7,2.9-2.9c0.7-1.2,1.1-2.6,1.1-4.1
				v-6.8c0-0.4-0.1-0.7-0.4-0.9c-0.3-0.2-0.6-0.4-0.9-0.4H32z M44.4,25.7v5.6c0,1-0.3,1.9-0.8,2.8c-0.5,0.8-1.2,1.5-2,2
				c-0.8,0.5-1.8,0.8-2.8,0.8h-5.6V25.7H44.4z M44,26.1H33.6v10.4h5.2c1,0,1.8-0.2,2.6-0.7c0.8-0.5,1.4-1.1,1.9-1.9
				c0.5-0.8,0.7-1.6,0.7-2.6V26.1z"/>
		</g>
	</g>
	<text transform="matrix(1 0 0 1 3.2261 55.1516)" class="st0 st1 st2">O</text>
</g>
</svg>
