<?xml version="1.0" encoding="utf-8"?>
<!-- Generator: Adobe Illustrator 21.1.0, SVG Export Plug-In . SVG Version: 6.00 Build 0)  -->
<svg version="1.1" id="Layer_1" xmlns="http://www.w3.org/2000/svg" xmlns:xlink="http://www.w3.org/1999/xlink" x="0px" y="0px"
	 viewBox="0 0 51.5 97.7" style="enable-background:new 0 0 51.5 97.7;" xml:space="preserve">
<style type="text/css">
	.st0{fill:#FFFFFF;}
	.st1{font-family:'JAPANHollow';}
	.st2{font-size:25.1595px;}
</style>
<g>
	<g>
		<g>
			<path class="st0" d="M9.3,75.5h10.2c0.5,0,0.8,0.2,1.2,0.5c0.3,0.3,0.5,0.7,0.5,1.2S21,78,20.7,78.4c-0.3,0.3-0.7,0.5-1.2,0.5
				h-12v1.8c0,0.5,0.2,0.9,0.5,1.2c0.3,0.3,0.8,0.5,1.2,0.5H16c0.5,0,0.9-0.2,1.2-0.5c0.3-0.3,0.5-0.8,0.5-1.2
				c0-0.5,0.2-0.8,0.5-1.2c0.3-0.3,0.7-0.5,1.2-0.5s0.8,0.2,1.2,0.5c0.3,0.3,0.5,0.7,0.5,1.2c0,0.9-0.2,1.8-0.7,2.5
				c-0.5,0.8-1.1,1.4-1.8,1.8c-0.8,0.5-1.6,0.7-2.5,0.7H9.3c-0.9,0-1.8-0.2-2.5-0.7C6,84.5,5.4,83.9,5,83.2
				c-0.5-0.8-0.7-1.6-0.7-2.5v-3.4c0-0.5,0.2-0.9,0.5-1.2c-0.3-0.6-0.5-1.4-0.5-2.2v-3.4c0-0.5,0.2-0.8,0.5-1.2
				C5.1,69,5.5,68.8,6,68.8h13.7c0.5,0,0.8,0.2,1.2,0.5c0.3,0.3,0.5,0.7,0.5,1.2v3.4c0,0.5-0.2,0.8-0.5,1.2
				c-0.3,0.3-0.7,0.5-1.2,0.5s-0.8-0.2-1.2-0.5c-0.3-0.3-0.5-0.7-0.5-1.2v-1.8H7.6v1.8c0,0.5,0.2,0.9,0.5,1.2
				C8.4,75.3,8.8,75.5,9.3,75.5z M9.3,75.8c-0.6,0-1.1-0.2-1.5-0.6c-0.4-0.4-0.6-0.9-0.6-1.5v-2.1h11.1v2.1c0,0.4,0.1,0.7,0.4,0.9
				c0.3,0.2,0.6,0.4,0.9,0.4c0.4,0,0.7-0.1,0.9-0.4c0.3-0.3,0.4-0.6,0.4-0.9v-3.4c0-0.4-0.1-0.7-0.4-0.9c-0.3-0.2-0.6-0.4-0.9-0.4
				H5.9c-0.4,0-0.7,0.1-0.9,0.4c-0.3,0.3-0.4,0.6-0.4,0.9v3.4c0,0.8,0.2,1.6,0.6,2.3c-0.4,0.3-0.6,0.7-0.6,1.1v3.4
				c0,0.9,0.2,1.6,0.6,2.4s1,1.3,1.7,1.7c0.7,0.4,1.5,0.6,2.4,0.6h6.8c0.9,0,1.6-0.2,2.4-0.6c0.7-0.4,1.3-1,1.7-1.7
				c0.4-0.7,0.6-1.5,0.6-2.4c0-0.4-0.1-0.7-0.4-0.9c-0.3-0.2-0.6-0.4-0.9-0.4c-0.4,0-0.7,0.1-0.9,0.4c-0.3,0.3-0.4,0.6-0.4,0.9
				c0,0.6-0.2,1.1-0.6,1.5s-0.9,0.6-1.5,0.6H9.3c-0.6,0-1.1-0.2-1.5-0.6c-0.4-0.4-0.6-0.9-0.6-1.5v-2.1h12.4c0.4,0,0.7-0.1,0.9-0.4
				c0.3-0.3,0.4-0.6,0.4-0.9s-0.1-0.7-0.4-0.9c-0.3-0.2-0.6-0.4-0.9-0.4H9.3z"/>
		</g>
		<g>
			<path class="st0" d="M41.9,57.5v-1.8H31.5v8.6c0,0.5,0.2,0.9,0.5,1.2c0.3,0.3,0.8,0.5,1.2,0.5H40c0.5,0,0.9-0.2,1.2-0.5
				s0.5-0.8,0.5-1.2v-1.8h-5.2c-0.5,0-0.8-0.2-1.2-0.5c-0.3-0.3-0.5-0.7-0.5-1.2s0.2-0.8,0.5-1.2c0.3-0.3,0.7-0.5,1.2-0.5h6.8
				c0.5,0,0.8,0.2,1.2,0.5s0.5,0.7,0.5,1.2v3.4c0,0.9-0.2,1.8-0.7,2.5s-1.1,1.4-1.8,1.8c-0.8,0.5-1.6,0.7-2.5,0.7h-6.8
				c-0.9,0-1.8-0.2-2.5-0.7c-0.8-0.5-1.4-1.1-1.8-1.8s-0.7-1.6-0.7-2.5V54.1c0-0.5,0.2-0.8,0.5-1.2c0.3-0.3,0.7-0.5,1.2-0.5h13.7
				c0.5,0,0.8,0.2,1.2,0.5c0.3,0.3,0.5,0.7,0.5,1.2v3.4c0,0.5-0.2,0.8-0.5,1.2c-0.3,0.3-0.7,0.5-1.2,0.5s-0.8-0.2-1.2-0.5
				S41.9,58,41.9,57.5z M42.3,57.5c0,0.4,0.1,0.7,0.4,0.9c0.3,0.2,0.6,0.4,0.9,0.4c0.4,0,0.7-0.1,0.9-0.4c0.3-0.3,0.4-0.6,0.4-0.9
				v-3.4c0-0.4-0.1-0.7-0.4-0.9c-0.3-0.2-0.6-0.4-0.9-0.4H29.9c-0.4,0-0.7,0.1-0.9,0.4c-0.3,0.3-0.4,0.6-0.4,0.9v10.2
				c0,0.9,0.2,1.6,0.6,2.4c0.4,0.7,1,1.3,1.7,1.7c0.7,0.4,1.5,0.6,2.4,0.6h6.8c0.9,0,1.6-0.2,2.4-0.6c0.7-0.4,1.3-1,1.7-1.7
				s0.6-1.5,0.6-2.4v-3.4c0-0.4-0.1-0.7-0.4-0.9c-0.3-0.2-0.6-0.4-0.9-0.4h-6.8c-0.4,0-0.7,0.1-0.9,0.4c-0.3,0.3-0.4,0.6-0.4,0.9
				s0.1,0.7,0.4,0.9c0.3,0.2,0.6,0.4,0.9,0.4h5.6v2.1c0,0.6-0.2,1.1-0.6,1.5c-0.4,0.4-0.9,0.6-1.5,0.6h-6.8c-0.6,0-1.1-0.2-1.5-0.6
				c-0.4-0.4-0.6-0.9-0.6-1.5v-9h11.1v2.2H42.3z"/>
		</g>
		<g>
			<path class="st0" d="M32,22.8h13.7c0.5,0,0.8,0.2,1.2,0.5c0.3,0.3,0.5,0.7,0.5,1.2v6.8c0,1.6-0.4,3-1.1,4.3
				c-0.8,1.3-1.8,2.3-3.1,3.1s-2.7,1.1-4.3,1.1H32c-0.5,0-0.8-0.2-1.2-0.5c-0.3-0.3-0.5-0.7-0.5-1.2V24.5c0-0.5,0.2-0.8,0.5-1.2
				C31.1,23,31.5,22.8,32,22.8z M32,23.2c-0.4,0-0.7,0.1-0.9,0.4c-0.3,0.3-0.4,0.6-0.4,0.9v13.7c0,0.4,0.1,0.7,0.4,0.9
				s0.6,0.4,0.9,0.4h6.8c1.5,0,2.8-0.4,4.1-1.1c1.2-0.7,2.2-1.7,2.9-2.9s1.1-2.6,1.1-4.1v-6.8c0-0.4-0.1-0.7-0.4-0.9
				c-0.3-0.2-0.6-0.4-0.9-0.4H32V23.2z M44.4,25.7v5.6c0,1-0.3,1.9-0.8,2.8c-0.5,0.8-1.2,1.5-2,2s-1.8,0.8-2.8,0.8h-5.6V25.7H44.4z
				 M44,26.1H33.6v10.4h5.2c1,0,1.8-0.2,2.6-0.7s1.4-1.1,1.9-1.9c0.5-0.8,0.7-1.6,0.7-2.6V26.1z"/>
		</g>
	</g>
	<text transform="matrix(1 0 0 1 3.2261 55.1516)" class="st0 st1 st2">O</text>
	<g>
		<path class="st0" d="M17.9,10.9V9.1H7.3v8.8c0,0.5,0.2,0.9,0.5,1.3c0.4,0.4,0.8,0.5,1.3,0.5h7c0.5,0,0.9-0.2,1.3-0.5
			c0.4-0.4,0.5-0.8,0.5-1.3V16h-5.3c-0.5,0-0.9-0.2-1.2-0.5s-0.5-0.7-0.5-1.2c0-0.5,0.2-0.9,0.5-1.2s0.7-0.5,1.2-0.5h7
			c0.5,0,0.9,0.2,1.2,0.5c0.3,0.3,0.5,0.7,0.5,1.2v3.5c0,0.9-0.2,1.8-0.7,2.6c-0.5,0.8-1.1,1.4-1.9,1.9S17,23,16.1,23h-7
			c-0.9,0-1.8-0.2-2.6-0.7s-1.4-1.1-1.9-1.9S4,18.8,4,17.8V7.4c0-0.5,0.2-0.9,0.5-1.2c0.3-0.3,0.7-0.5,1.2-0.5h13.9
			c0.5,0,0.9,0.2,1.2,0.5c0.3,0.3,0.5,0.7,0.5,1.2v3.5c0,0.5-0.2,0.9-0.5,1.2c-0.3,0.3-0.7,0.5-1.2,0.5c-0.5,0-0.9-0.2-1.2-0.5
			C18.1,11.7,17.9,11.3,17.9,10.9z M18.3,10.9c0,0.4,0.1,0.7,0.4,0.9c0.3,0.3,0.6,0.4,0.9,0.4s0.7-0.1,0.9-0.4
			c0.3-0.3,0.4-0.6,0.4-0.9V7.4c0-0.4-0.1-0.7-0.4-0.9c-0.3-0.3-0.6-0.4-0.9-0.4H5.7C5.3,6.1,5,6.2,4.7,6.5C4.5,6.7,4.4,7,4.4,7.4
			v10.4c0,0.9,0.2,1.7,0.6,2.4C5.4,21,6,21.5,6.7,22c0.7,0.4,1.5,0.6,2.4,0.6h7c0.9,0,1.7-0.2,2.4-0.6c0.7-0.4,1.3-1,1.7-1.7
			c0.4-0.7,0.6-1.5,0.6-2.4v-3.5c0-0.4-0.1-0.7-0.4-0.9c-0.3-0.3-0.6-0.4-0.9-0.4h-7c-0.4,0-0.7,0.1-0.9,0.4
			c-0.3,0.3-0.4,0.6-0.4,0.9c0,0.4,0.1,0.7,0.4,0.9c0.3,0.3,0.6,0.4,0.9,0.4h5.7v2.2c0,0.6-0.2,1.1-0.6,1.5
			c-0.4,0.4-0.9,0.6-1.5,0.6h-7c-0.6,0-1.1-0.2-1.5-0.6C7.2,18.9,7,18.4,7,17.8V8.7h11.3V10.9z"/>
	</g>
</g>
</svg>
